# xmcd
#
# Track frame offsets:
#	183
#	14523
#	26115
#	39245
#	50360
#	63190
#	77670
#	90273
#	102910
#	115958
#	129055
#	142030
#	155908
#	165245
#	175868
#	185530
#	198890
#	212265
#	222543
#	234185
#
# Disc length: 3279 seconds
#
# Revision: 0
# Processed by: cddbd v1.4PL0 Copyright (c) Steve Scherf et al.
# Submitted via: dBpowerAMP V4.0
#
DISCID=000ccd14
DTITLE=Freddy Fender - Before the next teardrop fals
DYEAR=1989
DGENRE=Country
TTITLE0=Wild side of life
TTITLE1=Before the next teardrop falls
TTITLE2=Wasted days and wasted nights
TTITLE3=Mathilda
TTITLE4=You'll lose a good thing
TTITLE5=Since I met you baby
TTITLE6=Almost persuaded
TTITLE7=Enter my heart
TTITLE8=The girl who waits on tables
TTITLE9=Going out with the tide
TTITLE10=Silver wings
TTITLE11=Baby I want to love yoy
TTITLE12=Running back
TTITLE13=A man can cry
TTITLE14=But I do
TTITLE15=Just because
TTITLE16=Mean woman blues
TTITLE17=Crazy baby
TTITLE18=I'm leaving it all up to you
TTITLE19=Sweet summer day
EXTD=
EXTT0=
EXTT1=
EXTT2=
EXTT3=
EXTT4=
EXTT5=
EXTT6=
EXTT7=
EXTT8=
EXTT9=
EXTT10=
EXTT11=
EXTT12=
EXTT13=
EXTT14=
EXTT15=
EXTT16=
EXTT17=
EXTT18=
EXTT19=
PLAYORDER=
